<svg width="22" height="22" viewBox="0 0 22 22" fill="none" xmlns="http://www.w3.org/2000/svg">
<path fill-rule="evenodd" clip-rule="evenodd" d="M0.929867 21.3352L0.664742 21.0701C0.445086 20.8504 0.445086 20.4943 0.664742 20.2746L8.43934 12.5H5.56248C5.25184 12.5 4.99998 12.2481 4.99998 11.9375V11.5625C4.99998 11.2518 5.25184 11 5.56248 11H10.25C10.6642 11 11 11.3358 11 11.75V16.4375C11 16.7481 10.7481 17 10.4375 17H10.0625C9.75184 17 9.49998 16.7481 9.49998 16.4375V13.5606L1.72538 21.3352C1.50568 21.5549 1.14952 21.5549 0.929867 21.3352ZM11.75 11H16.4375C16.7481 11 17 10.7481 17 10.4375V10.0625C17 9.75184 16.7481 9.49998 16.4375 9.49998H13.5606L21.3352 1.72538C21.5548 1.50573 21.5548 1.14957 21.3352 0.929867L21.0701 0.664742C20.8504 0.445086 20.4942 0.445086 20.2745 0.664742L12.5 8.43934V5.56248C12.5 5.25184 12.2481 4.99998 11.9375 4.99998H11.5625C11.2518 4.99998 11 5.25184 11 5.56248V10.25C11 10.6642 11.3357 11 11.75 11Z" fill="#242424"/>
</svg>
