<?xml version="1.0" standalone="no"?>
<!DOCTYPE svg PUBLIC "-//W3C//DTD SVG 20010904//EN"
 "http://www.w3.org/TR/2001/REC-SVG-20010904/DTD/svg10.dtd">
<svg version="1.0" xmlns="http://www.w3.org/2000/svg"
 width="300.000000pt" height="300.000000pt" viewBox="0 0 300.000000 300.000000"
 preserveAspectRatio="xMidYMid meet">
<metadata>
Created by potrace 1.11, written by Peter Selinger 2001-2013
</metadata>
<g transform="translate(0.000000,300.000000) scale(0.100000,-0.100000)"
fill="#000000" stroke="none">
<path d="M1297 2611 c-295 -65 -456 -268 -457 -578 l0 -93 209 0 209 0 4 103
c4 120 33 198 89 239 127 94 316 47 364 -90 38 -108 28 -277 -21 -374 -17 -34
-39 -58 -72 -79 -63 -40 -108 -51 -232 -58 l-105 -6 -3 -131 -3 -131 108 -6
c128 -7 165 -17 230 -60 89 -60 130 -183 120 -362 -13 -222 -66 -289 -227
-288 -139 1 -192 63 -210 249 -5 55 -10 107 -10 117 0 16 -17 17 -206 17
l-207 0 5 -127 c8 -199 57 -323 167 -426 96 -90 227 -135 416 -144 358 -16
562 109 655 402 30 96 39 318 16 423 -32 152 -110 261 -231 323 l-63 33 68 33
c154 75 240 237 240 454 0 180 -51 311 -160 413 -118 109 -251 155 -465 162
-112 3 -157 0 -228 -15z"/>
</g>
</svg>
